<svg xmlns="http://www.w3.org/2000/svg" viewBox="0 0 44.27 33.78"><defs><style>.cls-1{fill:#fff;}</style></defs><g id="Laag_2" data-name="Laag 2"><g id="Zonnepaneel"><polygon class="cls-1" points="14.56 12.1 8.34 12.16 6.1 15.86 12.32 15.8 14.56 12.1"/><polygon class="cls-1" points="18.02 6.61 11.8 6.67 9.58 10.34 15.8 10.28 18.02 6.61"/><path class="cls-1" d="M22.22,0H16.57a1,1,0,0,0-.81.45L13.21,4.67l6.22-.06Z"/><polygon class="cls-1" points="10.99 17.71 4.77 17.77 2.54 21.46 8.76 21.4 10.99 17.71"/><path class="cls-1" d="M1.65,23.52.13,26a.94.94,0,0,0,.81,1.42H5.46l2.41-4Z"/><polygon class="cls-1" points="29.17 10.16 37.17 10.09 39.39 6.42 31.38 6.5 29.17 10.16"/><path class="cls-1" d="M40.81,4.42l1.81-3A.93.93,0,0,0,41.82,0h-6.3L32.8,4.5Z"/><polygon class="cls-1" points="30.27 4.52 33 0 25 0 22.22 4.59 30.27 4.52"/><polygon class="cls-1" points="27.92 11.99 25.68 15.69 33.69 15.61 35.93 11.91 27.92 11.99"/><polygon class="cls-1" points="17.34 12.08 15.11 15.78 23.16 15.71 25.39 12.01 17.34 12.08"/><polygon class="cls-1" points="10.66 23.44 8.24 27.45 16.24 27.45 18.71 23.36 10.66 23.44"/><polygon class="cls-1" points="11.55 21.38 19.6 21.3 21.83 17.62 13.78 17.7 11.55 21.38"/><polygon class="cls-1" points="28.86 6.51 20.8 6.59 18.59 10.26 26.64 10.18 28.86 6.51"/><path class="cls-1" d="M18.76,27.44h7.43A.93.93,0,0,0,27,27l2.25-3.72-8,.08Z"/><polygon class="cls-1" points="22.13 21.29 30.13 21.21 32.36 17.52 24.36 17.6 22.13 21.29"/><path class="cls-1" d="M43,30.26H37.69V22.65A1.92,1.92,0,0,0,39,20.83V11.7L32.34,22.77h1.34v7.49H28.57a1.24,1.24,0,0,0-1.23,1.24v2.28H44.27V31.5A1.24,1.24,0,0,0,43,30.26Z"/></g></g></svg>